# Blender 5.0.0
# www.blender.org
mtllib RockPlatform.mtl
o rock-colonly
v 0.000000 -1.000000 0.000000
v -1.000000 1.000000 1.000000
v -1.002935 1.001887 0.000257
v -1.145625 1.019734 -1.128159
v 0.000911 0.992431 1.022454
v 1.000000 1.000000 1.000000
v 0.000000 0.989960 -1.020080
v 1.000000 1.000000 -1.000000
v 1.003608 1.002752 0.000131
v 0.000114 1.061612 0.000220
v -0.500363 1.021057 -0.000063
v -0.505717 -0.005983 0.506300
v -1.045473 1.028484 -0.499587
v 0.500000 1.000000 0.000000
v -0.000485 1.073146 -0.503421
v 0.500000 1.000000 -1.000000
v 1.000571 1.000466 -0.499972
v -1.000000 1.000000 0.500000
v 1.000000 1.000000 0.500000
v 0.000237 1.046968 0.500560
v 0.502577 0.990004 1.029649
v -0.500000 1.000000 1.000000
v -0.500000 1.000000 -1.000000
v -0.689734 -0.168146 -0.669658
v 0.573282 -0.065682 -0.560785
v 0.744481 -0.215834 0.705309
v -0.500000 1.000000 -0.500000
v 0.499990 1.000666 0.500006
v -0.500000 1.000000 0.500000
v 0.500000 1.000000 -0.500000
v 0.002000 0.468022 0.824719
v 0.963096 0.405063 -0.006726
v -0.000033 0.414038 -0.921991
v -0.780448 0.485456 0.000045
v -1.002603 1.000855 -0.751350
v 0.750000 1.000000 0.000000
v 0.750000 1.000000 -1.000000
v 1.000000 1.000000 0.750000
v 0.000578 1.008266 0.763352
v -0.750000 1.000000 1.000000
v -0.267422 -0.517710 -0.267870
v 0.313598 -0.569488 -0.310005
v 0.269071 -0.519847 0.270180
v -0.750000 1.000000 0.000000
v -0.250318 -0.500174 0.250008
v -0.000053 1.016124 -0.760277
v 1.030546 1.021068 -0.751772
v -1.000000 1.000000 0.750000
v 0.750000 1.000000 1.000000
v -0.750463 1.000058 -1.000407
v -0.500000 1.000000 -0.750000
v -0.753064 1.001919 -0.499974
v 0.501312 1.019216 0.767692
v 0.749981 1.001532 0.500010
v -0.500000 1.000000 0.750000
v -0.750000 1.018452 0.500000
v 0.500000 1.000000 -0.750000
v 0.749587 1.019950 -0.500029
v 0.267993 0.145252 0.838802
v -0.258082 0.143239 0.839596
v 0.734276 0.189547 -0.266432
v 0.814691 0.167437 0.231546
v -0.252474 0.232250 -0.658062
v 0.261844 0.171142 -0.771310
v -0.703657 0.209949 0.251562
v -0.683178 0.226710 -0.250514
v -0.595416 -0.210984 0.003579
v 0.003707 -0.235939 -0.647632
v 0.481443 -0.147715 0.000028
v 0.000000 -0.125000 0.437500
v 0.750000 1.000000 -0.750000
v 0.749493 1.041208 0.750277
v -0.750000 1.000000 -0.750000
v -0.750000 1.004377 0.750000
v -0.250121 1.011327 0.000010
v -0.750000 0.500000 0.750000
v -0.000084 1.060135 -0.251106
v 1.030405 1.024091 -0.248686
v -1.000000 1.000000 0.250000
v 0.253849 0.981257 1.054048
v -0.250000 0.995987 -1.008027
v -1.122129 1.078531 -0.238969
v 0.250000 1.000185 0.000000
v 0.250000 0.999634 -1.000733
v 1.000000 1.000000 0.250000
v -0.000347 1.015601 0.249597
v -0.250141 0.995592 1.013785
v -0.750000 0.495637 -0.758727
v 0.769522 0.475058 -0.781600
v 0.768044 0.482244 0.767975
v -0.500121 1.001023 -0.250005
v -0.251286 1.017060 -0.500616
v 0.500000 1.000000 0.250000
v 0.249821 1.021432 0.500408
v -0.500378 1.019260 0.250047
v -0.250011 1.000500 0.499987
v 0.500000 1.000000 -0.250000
v 0.250000 1.000000 -0.500000
v -0.250635 0.726491 0.947528
v 0.261862 0.699162 1.023999
v 0.918792 0.729981 0.250170
v 0.952052 0.722466 -0.255723
v 0.249961 0.715612 -0.943914
v -0.250000 0.702197 -0.970606
v -0.881473 0.753994 -0.249482
v -0.879417 0.747807 0.250066
v -0.850991 0.605885 0.500577
v -0.821020 0.620836 -0.500199
v -0.500000 0.590511 -0.881479
v 0.509459 0.575730 -0.902810
v 0.861226 0.602045 -0.502251
v 0.846523 0.607566 0.502527
v 0.512781 0.593238 0.906534
v -0.500013 0.624315 0.814570
v 0.250000 0.999870 -0.750260
v 0.749964 1.001647 -0.250002
v -0.750000 1.000000 0.250000
v -0.250090 0.996935 0.759522
v 0.750000 1.000000 0.250000
v -0.250000 0.998433 -0.753134
v -0.751963 1.001251 -0.249835
v 0.252602 1.003636 0.792188
v -0.250371 1.016680 0.249569
v 0.250000 1.000000 0.250000
v -0.252742 1.030349 -0.250623
v 0.250000 1.010073 -0.250000
v 0.002387 0.849669 1.013000
v 0.948720 0.871009 -0.000930
v 0.000000 0.843378 -1.000743
v -0.937769 0.875171 0.000022
vn -0.8795 -0.4526 0.1470
vn 0.0154 -0.1308 -0.9913
vn 0.9223 -0.3846 0.0377
vn -0.0813 -0.0667 0.9945
vn 0.2176 0.9759 0.0163
vn -0.0088 0.9999 0.0088
vn 0.0225 0.9971 0.0731
vn 0.1272 0.9839 0.1252
vn -0.0394 0.9992 -0.0018
vn -0.0313 0.9988 -0.0371
vn 0.0503 0.9973 -0.0541
vn -0.0509 0.9894 0.1363
vn -0.0017 1.0000 -0.0044
vn 0.0816 0.9912 -0.1044
vn 0.0148 0.9999 0.0027
vn 0.0042 0.9975 0.0706
vn -0.0369 0.9986 -0.0369
vn -0.0033 1.0000 0.0033
vn -0.0399 0.9984 -0.0399
vn 0.1776 0.9779 -0.1101
vn -0.1466 -0.4378 0.8870
vn 0.0034 -0.5467 0.8373
vn 0.2208 -0.2839 0.9331
vn 0.9305 -0.3636 0.0453
vn 0.7446 -0.6506 -0.1491
vn 0.9429 -0.3295 -0.0491
vn 0.0174 -0.2229 -0.9747
vn -0.2417 -0.3785 -0.8935
vn -0.1076 -0.2764 -0.9550
vn -0.8757 -0.4821 -0.0258
vn -0.9653 -0.2567 -0.0479
vn -0.9343 -0.3533 -0.0471
vn -0.8911 -0.4456 0.0857
vn -0.8686 -0.4872 0.0907
vn -0.7972 -0.6018 0.0467
vn -0.7902 -0.5052 0.3470
vn -0.8798 -0.4424 0.1737
vn 0.0573 -0.4313 -0.9004
vn 0.2736 -0.4947 -0.8249
vn -0.1122 -0.6422 -0.7583
vn -0.0169 -0.4612 -0.8871
vn 0.1435 -0.3756 -0.9156
vn 0.9005 -0.4256 -0.0892
vn 0.7302 -0.5982 -0.3301
vn 0.8656 -0.4889 0.1083
vn 0.8707 -0.4867 0.0714
vn 0.9124 -0.4074 0.0399
vn 0.1599 -0.3990 0.9029
vn -0.0587 -0.6748 0.7356
vn -0.0516 -0.4466 0.8932
vn -0.3326 -0.6131 0.7166
vn -0.0043 -0.4472 0.8944
vn 0.0162 0.9985 -0.0517
vn -0.0030 1.0000 0.0011
vn -0.0398 0.9984 -0.0398
vn -0.0000 1.0000 -0.0000
vn -0.0472 0.9979 0.0435
vn -0.0016 1.0000 0.0016
vn 0.0050 1.0000 0.0070
vn 0.0031 1.0000 -0.0031
vn 0.0818 0.9933 0.0818
vn 0.0848 0.9933 -0.0787
vn -0.0494 0.9925 -0.1115
vn 0.0038 1.0000 -0.0038
vn 0.0001 1.0000 0.0001
vn 0.0269 0.9993 0.0240
vn 0.0111 0.9999 -0.0048
vn -0.0415 0.9984 -0.0374
vn 0.0540 0.9934 0.1009
vn 0.0088 0.9999 0.0088
vn 0.0456 0.9986 0.0281
vn -0.0456 0.9986 0.0281
vn 0.0103 0.9999 -0.0014
vn 0.0043 1.0000 -0.0007
vn -0.0254 0.9981 -0.0555
vn -0.0055 1.0000 0.0055
vn -0.1150 0.9901 0.0802
vn -0.0805 0.9967 0.0036
vn -0.0055 0.9999 -0.0103
vn -0.0010 1.0000 -0.0005
vn -0.4327 -0.3929 0.8114
vn 0.2474 -0.1665 0.9545
vn 0.9865 -0.0884 0.1376
vn 0.9127 -0.3806 -0.1485
vn 0.2442 -0.4372 -0.8656
vn 0.0462 -0.2793 -0.9591
vn -0.9843 -0.1720 0.0384
vn -0.8541 -0.4801 0.2000
vn -0.9488 -0.3102 -0.0591
vn -0.9358 -0.3519 -0.0193
vn -0.2540 -0.5347 -0.8060
vn 0.1299 -0.2971 -0.9460
vn 0.8790 -0.3527 -0.3209
vn 0.9399 -0.1835 0.2881
vn -0.0738 -0.3170 0.9456
vn -0.0760 -0.1805 0.9806
vn -0.0003 1.0000 -0.0003
vn -0.0432 0.9984 0.0366
vn 0.0038 1.0000 0.0038
vn -0.0903 0.9955 -0.0300
vn -0.0976 0.9919 0.0807
vn 0.0246 0.9997 -0.0071
vn -0.0171 0.9993 0.0334
vn 0.0414 0.9982 -0.0441
vn 0.0004 1.0000 0.0004
vn 0.1515 0.9842 0.0912
vn -0.1470 0.9783 -0.1458
vn -0.1571 0.9869 0.0354
vn -0.1681 0.9858 -0.0009
vn -0.0931 0.9952 -0.0288
vn 0.1532 0.9855 -0.0726
vn -0.0390 0.9944 0.0981
vn 0.0205 0.9996 0.0198
vn 0.0201 0.9996 -0.0201
vn 0.2390 0.9710 0.0055
vn -0.0962 -0.2378 0.9665
vn -0.1555 -0.4369 0.8860
vn -0.0034 -0.1060 0.9944
vn 0.9574 -0.2879 -0.0239
vn 0.9974 0.0300 0.0651
vn 0.9671 -0.2520 0.0351
vn 0.0628 -0.1958 -0.9786
vn 0.0573 -0.1801 -0.9820
vn -0.0410 -0.1262 -0.9912
vn -0.8034 -0.5954 -0.0095
vn -0.9273 -0.3743 -0.0008
vn -0.9022 -0.4314 -0.0046
vt 0.609375 0.117188
vt 0.625000 0.093750
vt 0.625000 0.125000
vt 0.625000 0.156250
vt 0.609375 0.367188
vt 0.625000 0.343750
vt 0.625000 0.375000
vt 0.625000 0.406250
vt 0.609375 0.617188
vt 0.625000 0.593750
vt 0.625000 0.625000
vt 0.625000 0.656250
vt 0.609375 0.867188
vt 0.625000 0.843750
vt 0.625000 0.875000
vt 0.625000 0.906250
vt 0.718750 0.593750
vt 0.750000 0.593750
vt 0.750000 0.625000
vt 0.718750 0.625000
vt 0.843750 0.718750
vt 0.875000 0.718750
vt 0.875000 0.750000
vt 0.843750 0.750000
vt 0.718750 0.718750
vt 0.750000 0.718750
vt 0.750000 0.750000
vt 0.718750 0.750000
vt 0.843750 0.593750
vt 0.875000 0.593750
vt 0.875000 0.625000
vt 0.843750 0.625000
vt 0.781250 0.593750
vt 0.812500 0.593750
vt 0.812500 0.625000
vt 0.781250 0.625000
vt 0.781250 0.531250
vt 0.812500 0.531250
vt 0.812500 0.562500
vt 0.781250 0.562500
vt 0.843750 0.531250
vt 0.875000 0.531250
vt 0.875000 0.562500
vt 0.843750 0.562500
vt 0.656250 0.718750
vt 0.687500 0.718750
vt 0.687500 0.750000
vt 0.656250 0.750000
vt 0.656250 0.656250
vt 0.687500 0.656250
vt 0.687500 0.687500
vt 0.656250 0.687500
vt 0.718750 0.656250
vt 0.750000 0.656250
vt 0.750000 0.687500
vt 0.718750 0.687500
vt 0.781250 0.718750
vt 0.812500 0.718750
vt 0.812500 0.750000
vt 0.781250 0.750000
vt 0.781250 0.656250
vt 0.812500 0.656250
vt 0.812500 0.687500
vt 0.781250 0.687500
vt 0.843750 0.656250
vt 0.875000 0.656250
vt 0.875000 0.687500
vt 0.843750 0.687500
vt 0.656250 0.593750
vt 0.687500 0.593750
vt 0.687500 0.625000
vt 0.656250 0.625000
vt 0.656250 0.531250
vt 0.687500 0.531250
vt 0.687500 0.562500
vt 0.656250 0.562500
vt 0.718750 0.531250
vt 0.750000 0.531250
vt 0.750000 0.562500
vt 0.718750 0.562500
vt 0.578125 0.914062
vt 0.593750 0.890625
vt 0.625000 0.937500
vt 0.625000 0.968750
vt 0.484375 0.804688
vt 0.531250 0.796875
vt 0.562500 0.843750
vt 0.531250 0.859375
vt 0.578125 0.789062
vt 0.625000 0.781250
vt 0.625000 0.812500
vt 0.593750 0.828125
vt 0.578125 0.664062
vt 0.593750 0.640625
vt 0.625000 0.687500
vt 0.625000 0.718750
vt 0.484375 0.554688
vt 0.531250 0.546875
vt 0.562500 0.593750
vt 0.531250 0.609375
vt 0.578125 0.539062
vt 0.625000 0.531250
vt 0.625000 0.562500
vt 0.593750 0.578125
vt 0.578125 0.414062
vt 0.593750 0.390625
vt 0.625000 0.437500
vt 0.625000 0.468750
vt 0.484375 0.304688
vt 0.531250 0.296875
vt 0.562500 0.343750
vt 0.531250 0.359375
vt 0.578125 0.289062
vt 0.625000 0.281250
vt 0.625000 0.312500
vt 0.593750 0.328125
vt 0.578125 0.164062
vt 0.593750 0.140625
vt 0.625000 0.187500
vt 0.625000 0.218750
vt 0.484375 0.054688
vt 0.531250 0.046875
vt 0.562500 0.093750
vt 0.531250 0.109375
vt 0.578125 0.039062
vt 0.625000 0.031250
vt 0.625000 0.062500
vt 0.593750 0.078125
vt 0.562500 0.000000
vt 0.625000 0.000000
vt 0.437500 0.062500
vt 0.500000 0.125000
vt 0.375000 0.000000
vt 0.437500 0.000000
vt 0.500000 0.000000
vt 0.562500 0.187500
vt 0.625000 0.250000
vt 0.562500 0.250000
vt 0.437500 0.312500
vt 0.500000 0.375000
vt 0.375000 0.250000
vt 0.437500 0.250000
vt 0.500000 0.250000
vt 0.562500 0.437500
vt 0.625000 0.500000
vt 0.562500 0.500000
vt 0.437500 0.562500
vt 0.500000 0.625000
vt 0.375000 0.500000
vt 0.437500 0.500000
vt 0.500000 0.500000
vt 0.562500 0.687500
vt 0.625000 0.750000
vt 0.562500 0.750000
vt 0.437500 0.812500
vt 0.500000 0.875000
vt 0.375000 0.750000
vt 0.437500 0.750000
vt 0.500000 0.750000
vt 0.562500 0.937500
vt 0.625000 1.000000
vt 0.718750 0.500000
vt 0.750000 0.500000
vt 0.656250 0.500000
vt 0.687500 0.500000
vt 0.812500 0.500000
vt 0.843750 0.500000
vt 0.875000 0.500000
vt 0.781250 0.500000
s 0
usemtl Material.001
f 130/1/1 79/2/1 3/3/1 82/4/1
f 129/5/2 81/6/2 7/7/2 84/8/2
f 128/9/3 78/10/3 9/11/3 85/12/3
f 127/13/4 80/14/4 5/15/4 87/16/4
f 126/17/5 77/18/5 10/19/5 83/20/5
f 74/21/6 48/22/6 2/23/6 40/24/6
f 122/25/7 39/26/7 5/27/7 80/28/7
f 121/29/8 82/30/8 3/31/8 44/32/8
f 125/33/9 91/34/9 11/35/9 75/36/9
f 120/37/10 51/38/10 27/39/10 92/40/10
f 73/41/11 35/42/11 13/43/11 52/44/11
f 72/45/12 53/46/12 21/47/12 49/48/12
f 119/49/13 93/50/13 28/51/13 54/52/13
f 124/53/14 86/54/14 20/55/14 94/56/14
f 118/57/15 55/58/15 22/59/15 87/60/15
f 123/61/16 95/62/16 29/63/16 96/64/16
f 117/65/17 79/66/17 18/67/17 56/68/17
f 116/69/18 97/70/18 14/71/18 36/72/18
f 71/73/19 57/74/19 30/75/19 58/76/19
f 115/77/20 46/78/20 15/79/20 98/80/20
f 114/81/21 99/82/21 22/83/21 40/84/21
f 70/85/22 59/86/22 31/87/22 60/88/22
f 113/89/23 49/90/23 21/91/23 100/92/23
f 112/93/24 101/94/24 19/95/24 38/96/24
f 69/97/25 61/98/25 32/99/25 62/100/25
f 111/101/26 47/102/26 17/103/26 102/104/26
f 110/105/27 103/106/27 16/107/27 37/108/27
f 68/109/28 63/110/28 33/111/28 64/112/28
f 109/113/29 50/114/29 23/115/29 104/116/29
f 108/117/30 105/118/30 13/119/30 35/120/30
f 67/121/31 65/122/31 34/123/31 66/124/31
f 107/125/32 48/126/32 18/127/32 106/128/32
f 76/129/33 2/130/33 48/126/33 107/125/33
f 41/131/34 67/121/34 66/124/34 24/132/34
f 1/133/35 45/134/35 67/121/35 41/131/35
f 45/134/36 12/135/36 65/122/36 67/121/36
f 88/136/37 108/117/37 35/120/37 4/137/37
f 88/138/38 4/137/38 50/114/38 109/113/38
f 42/139/39 68/109/39 64/112/39 25/140/39
f 1/141/40 41/142/40 68/109/40 42/139/40
f 41/142/41 24/143/41 63/110/41 68/109/41
f 89/144/42 110/105/42 37/108/42 8/145/42
f 89/146/43 8/145/43 47/102/43 111/101/43
f 43/147/44 69/97/44 62/100/44 26/148/44
f 1/149/45 42/150/45 69/97/45 43/147/45
f 42/150/46 25/151/46 61/98/46 69/97/46
f 90/152/47 112/93/47 38/96/47 6/153/47
f 90/154/48 6/153/48 49/90/48 113/89/48
f 45/155/49 70/85/49 60/88/49 12/156/49
f 1/157/50 43/158/50 70/85/50 45/155/50
f 43/158/51 26/159/51 59/86/51 70/85/51
f 76/160/52 114/81/52 40/84/52 2/161/52
f 84/162/53 7/163/53 46/78/53 115/77/53
f 47/102/54 71/73/54 58/76/54 17/103/54
f 8/145/55 37/164/55 71/73/55 47/102/55
f 37/164/56 16/165/56 57/74/56 71/73/56
f 78/10/57 116/69/57 36/72/57 9/11/57
f 95/62/58 117/65/58 56/68/58 29/63/58
f 96/64/59 29/63/59 55/58/59 118/57/59
f 85/12/60 119/49/60 54/52/60 19/95/60
f 38/96/61 72/45/61 49/48/61 6/153/61
f 19/95/62 54/52/62 72/45/62 38/96/62
f 54/52/63 28/51/63 53/46/63 72/45/63
f 51/38/64 73/41/64 52/44/64 27/39/64
f 23/166/65 50/167/65 73/41/65 51/38/65
f 50/167/66 4/168/66 35/42/66 73/41/66
f 81/169/67 23/166/67 51/38/67 120/37/67
f 91/34/68 121/29/68 44/32/68 11/35/68
f 94/56/69 20/55/69 39/26/69 122/25/69
f 55/58/70 74/21/70 40/24/70 22/59/70
f 29/63/71 56/68/71 74/21/71 55/58/71
f 56/68/72 18/67/72 48/22/72 74/21/72
f 28/51/73 94/56/73 122/25/73 53/46/73
f 27/39/74 52/44/74 121/29/74 91/34/74
f 7/163/75 81/169/75 120/37/75 46/78/75
f 9/11/76 36/72/76 119/49/76 85/12/76
f 20/55/77 96/64/77 118/57/77 39/26/77
f 11/35/78 44/32/78 117/65/78 95/62/78
f 17/103/79 58/76/79 116/69/79 78/10/79
f 16/165/80 84/162/80 115/77/80 57/74/80
f 12/156/81 60/88/81 114/81/81 76/160/81
f 26/159/82 90/154/82 113/89/82 59/86/82
f 26/148/83 62/100/83 112/93/83 90/152/83
f 25/151/84 89/146/84 111/101/84 61/98/84
f 25/140/85 64/112/85 110/105/85 89/144/85
f 24/143/86 88/138/86 109/113/86 63/110/86
f 24/132/87 66/124/87 108/117/87 88/136/87
f 12/135/88 76/129/88 107/125/88 65/122/88
f 65/122/89 107/125/89 106/128/89 34/123/89
f 66/124/90 34/123/90 105/118/90 108/117/90
f 63/110/91 109/113/91 104/116/91 33/111/91
f 64/112/92 33/111/92 103/106/92 110/105/92
f 61/98/93 111/101/93 102/104/93 32/99/93
f 62/100/94 32/99/94 101/94/94 112/93/94
f 59/86/95 113/89/95 100/92/95 31/87/95
f 60/88/96 31/87/96 99/82/96 114/81/96
f 57/74/97 115/77/97 98/80/97 30/75/97
f 58/76/98 30/75/98 97/70/98 116/69/98
f 44/32/99 3/31/99 79/66/99 117/65/99
f 86/54/100 123/61/100 96/64/100 20/55/100
f 10/19/101 75/36/101 123/61/101 86/54/101
f 75/36/102 11/35/102 95/62/102 123/61/102
f 39/26/103 118/57/103 87/60/103 5/27/103
f 93/50/104 124/53/104 94/56/104 28/51/104
f 14/71/105 83/20/105 124/53/105 93/50/105
f 83/20/106 10/19/106 86/54/106 124/53/106
f 36/72/56 14/71/56 93/50/56 119/49/56
f 46/78/107 120/37/107 92/40/107 15/79/107
f 77/18/108 125/33/108 75/36/108 10/19/108
f 15/79/109 92/40/109 125/33/109 77/18/109
f 92/40/110 27/39/110 91/34/110 125/33/110
f 52/44/111 13/43/111 82/30/111 121/29/111
f 53/46/112 122/25/112 80/28/112 21/47/112
f 97/70/113 126/17/113 83/20/113 14/71/113
f 30/75/114 98/80/114 126/17/114 97/70/114
f 98/80/115 15/79/115 77/18/115 126/17/115
f 99/82/116 127/13/116 87/16/116 22/83/116
f 31/87/117 100/92/117 127/13/117 99/82/117
f 100/92/118 21/91/118 80/14/118 127/13/118
f 101/94/119 128/9/119 85/12/119 19/95/119
f 32/99/120 102/104/120 128/9/120 101/94/120
f 102/104/121 17/103/121 78/10/121 128/9/121
f 103/106/122 129/5/122 84/8/122 16/107/122
f 33/111/123 104/116/123 129/5/123 103/106/123
f 104/116/124 23/115/124 81/6/124 129/5/124
f 105/118/125 130/1/125 82/4/125 13/119/125
f 34/123/126 106/128/126 130/1/126 105/118/126
f 106/128/127 18/127/127 79/2/127 130/1/127
